<svg width="28" height="20" viewBox="0 0 28 20" fill="none" xmlns="http://www.w3.org/2000/svg">
  <rect width="28" height="20" rx="3" fill="#FFFFFF"/>
  <rect y="0" width="28" height="2" fill="#B22234"/>
  <rect y="4" width="28" height="2" fill="#B22234"/>
  <rect y="8" width="28" height="2" fill="#B22234"/>
  <rect y="12" width="28" height="2" fill="#B22234"/>
  <rect y="16" width="28" height="2" fill="#B22234"/>
  <rect width="12" height="10" rx="3" fill="#3C3B6E"/>
  <circle cx="2.4" cy="2.3" r="0.6" fill="#FFFFFF"/>
  <circle cx="4.8" cy="2.3" r="0.6" fill="#FFFFFF"/>
  <circle cx="7.2" cy="2.3" r="0.6" fill="#FFFFFF"/>
  <circle cx="9.6" cy="2.3" r="0.6" fill="#FFFFFF"/>
  <circle cx="3.6" cy="4.3" r="0.6" fill="#FFFFFF"/>
  <circle cx="6.0" cy="4.3" r="0.6" fill="#FFFFFF"/>
  <circle cx="8.4" cy="4.3" r="0.6" fill="#FFFFFF"/>
  <circle cx="2.4" cy="6.3" r="0.6" fill="#FFFFFF"/>
  <circle cx="4.8" cy="6.3" r="0.6" fill="#FFFFFF"/>
  <circle cx="7.2" cy="6.3" r="0.6" fill="#FFFFFF"/>
  <circle cx="9.6" cy="6.3" r="0.6" fill="#FFFFFF"/>
  <circle cx="3.6" cy="8.3" r="0.6" fill="#FFFFFF"/>
  <circle cx="6.0" cy="8.3" r="0.6" fill="#FFFFFF"/>
  <circle cx="8.4" cy="8.3" r="0.6" fill="#FFFFFF"/>
</svg>
