<svg width="28" height="20" viewBox="0 0 28 20" fill="none" xmlns="http://www.w3.org/2000/svg">
  <rect width="28" height="20" rx="3" fill="#EE1C25"/>
  <path d="M6.2 4.1l.7 2.1h2.2L7.3 7.5l.7 2.1-1.8-1.3-1.8 1.3.7-2.1-1.8-1.3h2.2l.7-2.1z" fill="#FFDE00"/>
  <path d="M10.2 3.2l.2.6h.6l-.5.4.2.6-.5-.4-.5.4.2-.6-.5-.4h.6l.2-.6z" fill="#FFDE00"/>
  <path d="M11.5 5.1l.2.6h.6l-.5.4.2.6-.5-.4-.5.4.2-.6-.5-.4h.6l.2-.6z" fill="#FFDE00"/>
  <path d="M11.3 7.4l.2.6h.6l-.5.4.2.6-.5-.4-.5.4.2-.6-.5-.4h.6l.2-.6z" fill="#FFDE00"/>
  <path d="M10 9.1l.2.6h.6l-.5.4.2.6-.5-.4-.5.4.2-.6-.5-.4h.6l.2-.6z" fill="#FFDE00"/>
</svg>
