<svg width="64" height="64" viewBox="0 0 64 64" fill="none" xmlns="http://www.w3.org/2000/svg">
  <rect width="64" height="64" rx="14" fill="#0B0B10"/>
  <path d="M28.3 26.6V41.2C28.3 45.6 24.7 49.2 20.3 49.2C15.9 49.2 12.3 45.6 12.3 41.2C12.3 36.8 15.9 33.2 20.3 33.2C21.3 33.2 22.2 33.4 23.1 33.8V38.6C22.4 38.1 21.5 37.8 20.5 37.8C18.3 37.8 16.5 39.6 16.5 41.8C16.5 44 18.3 45.8 20.5 45.8C22.7 45.8 24.5 44 24.5 41.8V14.8H28.3C28.5 18.1 29.8 20.9 32 23.1C34.2 25.3 37 26.6 40.3 26.8V30.5C35.8 30.3 31.9 28.2 28.3 26.6Z" fill="#25F4EE"/>
  <path d="M29.9 25V39.6C29.9 44 26.3 47.6 21.9 47.6C18.3 47.6 15.2 45.2 14.2 41.9C15.2 44.4 17.6 46.2 20.4 46.2C24.8 46.2 28.4 42.6 28.4 38.2V11.2H32.1C32.2 12 32.4 12.8 32.6 13.6H29.9V25Z" fill="#FE2C55"/>
  <path d="M40.3 25.2V28.9C37.3 28.7 34.6 27.6 32.4 25.8C34.7 27.2 37.4 24.2 40.3 25.2Z" fill="#FE2C55"/>
</svg>
