<svg xmlns="http://www.w3.org/2000/svg" width="720" height="360" viewBox="0 0 720 360" role="img" aria-label="Live streaming creator campaign cover">
  <defs>
    <linearGradient id="bg" x1="0" x2="1" y1="0" y2="1">
      <stop offset="0" stop-color="#0f766e"/>
      <stop offset=".6" stop-color="#2457d6"/>
      <stop offset="1" stop-color="#f97316"/>
    </linearGradient>
  </defs>
  <rect width="720" height="360" rx="28" fill="url(#bg)"/>
  <rect x="70" y="62" width="390" height="236" rx="26" fill="#fff" opacity=".16"/>
  <rect x="98" y="92" width="334" height="176" rx="20" fill="#0f172a" opacity=".46"/>
  <circle cx="265" cy="180" r="54" fill="#fff" opacity=".9"/>
  <path d="M249 148l56 32-56 32z" fill="#2457d6"/>
  <rect x="510" y="86" width="124" height="38" rx="19" fill="#fff" opacity=".9"/>
  <circle cx="534" cy="105" r="8" fill="#ef4444"/>
  <path d="M552 105h48" stroke="#0f172a" stroke-width="8" stroke-linecap="round" opacity=".55"/>
  <rect x="503" y="156" width="112" height="18" rx="9" fill="#fff" opacity=".76"/>
  <rect x="503" y="192" width="148" height="18" rx="9" fill="#fff" opacity=".48"/>
  <rect x="503" y="228" width="92" height="18" rx="9" fill="#fff" opacity=".62"/>
  <path d="M54 322c98-52 198-54 301-8 101 45 204 39 311-20v66H54z" fill="#fff" opacity=".16"/>
</svg>
